<?xml version='1.0' encoding='iso-8859-1'?>
<!DOCTYPE svg PUBLIC '-//W3C//DTD SVG 1.1//EN' 'http://www.w3.org/Graphics/SVG/1.1/DTD/svg11.dtd'>
<svg version="1.1" xmlns="http://www.w3.org/2000/svg" viewBox="0 0 296.999 296.999" xmlns:xlink="http://www.w3.org/1999/xlink" enable-background="new 0 0 296.999 296.999">
  <g>
    <path d="M293.362,130.728L155.278,12.37c-3.898-3.342-9.654-3.344-13.555,0L3.637,130.728c-3.309,2.837-4.502,7.434-2.99,11.521   c1.512,4.088,5.41,6.801,9.767,6.801h29.037v127.671c0,5.751,4.664,10.415,10.416,10.415h197.264   c5.752,0,10.414-4.664,10.414-10.415V149.05h29.039c4.357,0,8.256-2.713,9.767-6.801   C297.864,138.161,296.671,133.565,293.362,130.728z M247.131,128.221c-5.752,0-10.414,4.663-10.414,10.415v127.67H60.282v-127.67   c0-5.752-4.662-10.415-10.414-10.415H38.567l109.934-94.227l109.93,94.227H247.131z"/>
    <path d="m91.827,164.126c0,13.186 8.932,28.119 26.549,44.39 12.086,11.159 24.031,19.074 24.533,19.406 1.74,1.147 3.736,1.721 5.734,1.721 1.998,0 3.996-0.573 5.736-1.721 0.502-0.332 12.445-8.247 24.527-19.409 17.615-16.27 26.545-31.203 26.545-44.387 0-19.248-15.076-34.907-33.605-34.907-8.99,0-17.164,3.682-23.203,9.669-6.037-5.987-14.211-9.669-23.199-9.669-18.537-5.68434e-14-33.617,15.659-33.617,34.907zm46.402,0c0,5.752 4.662,10.415 10.414,10.415 5.752,0 10.414-4.663 10.414-10.415 0-7.764 5.736-14.078 12.789-14.078 7.045,0 12.775,6.314 12.775,14.078 0,11.603-19.479,30.381-35.986,42.42-16.504-12.014-35.98-30.777-35.98-42.42 0-7.764 5.738-14.078 12.789-14.078 7.049,2.84217e-14 12.785,6.315 12.785,14.078z"/>
  </g>
</svg>
